<mxfile host="Electron" modified="2023-10-22T16:44:32.777Z" agent="Mozilla/5.0 (Windows NT 10.0; Win64; x64) AppleWebKit/537.36 (KHTML, like Gecko) draw.io/22.0.2 Chrome/114.0.5735.289 Electron/25.8.4 Safari/537.36" etag="etwCEe7igEJ_oFPAQD8k" version="22.0.2" type="device" pages="3">
  <diagram id="RmqISZ5cxPwuzMCjf3WB" name="UC10">
    <mxGraphModel dx="-1417" dy="2050" grid="1" gridSize="10" guides="1" tooltips="1" connect="1" arrows="1" fold="1" page="1" pageScale="1" pageWidth="827" pageHeight="1169" math="0" shadow="0">
      <root>
        <mxCell id="0" />
        <mxCell id="1" parent="0" />
        <mxCell id="9OeMlv5DkkwpeZTBS1o4-1" value="UC10:Pesquisar contato da farmacovigilancia" style="text;html=1;strokeColor=none;fillColor=none;align=center;verticalAlign=middle;whiteSpace=wrap;rounded=0;fontStyle=1;fontSize=14;" parent="1" vertex="1">
          <mxGeometry x="5300" y="19.409999999999997" width="190" height="30" as="geometry" />
        </mxCell>
        <mxCell id="9OeMlv5DkkwpeZTBS1o4-3" value=":Utilizador" style="shape=umlActor;verticalLabelPosition=bottom;verticalAlign=top;html=1;outlineConnect=0;fontStyle=1;fontSize=17;" parent="1" vertex="1">
          <mxGeometry x="5070" y="60" width="60" height="120" as="geometry" />
        </mxCell>
        <mxCell id="9OeMlv5DkkwpeZTBS1o4-4" value=":Sistema" style="rounded=0;whiteSpace=wrap;html=1;fontStyle=1;fontSize=17;" parent="1" vertex="1">
          <mxGeometry x="5570" y="139.41" width="120" height="60" as="geometry" />
        </mxCell>
        <mxCell id="9OeMlv5DkkwpeZTBS1o4-5" value="" style="endArrow=none;dashed=1;html=1;rounded=0;fontStyle=1;fontSize=16;strokeWidth=1;" parent="1" edge="1">
          <mxGeometry width="50" height="50" relative="1" as="geometry">
            <mxPoint x="5100" y="210.41" as="sourcePoint" />
            <mxPoint x="5100" y="469.40999999999997" as="targetPoint" />
          </mxGeometry>
        </mxCell>
        <mxCell id="9OeMlv5DkkwpeZTBS1o4-6" value="" style="endArrow=none;dashed=1;html=1;rounded=0;fontStyle=1;fontSize=16;strokeWidth=1;" parent="1" edge="1">
          <mxGeometry width="50" height="50" relative="1" as="geometry">
            <mxPoint x="5629.5" y="210.41" as="sourcePoint" />
            <mxPoint x="5630" y="469.40999999999997" as="targetPoint" />
          </mxGeometry>
        </mxCell>
        <mxCell id="9OeMlv5DkkwpeZTBS1o4-7" value="" style="endArrow=classic;html=1;rounded=0;strokeWidth=2;" parent="1" edge="1">
          <mxGeometry width="50" height="50" relative="1" as="geometry">
            <mxPoint x="5100" y="249.41" as="sourcePoint" />
            <mxPoint x="5630" y="249.41" as="targetPoint" />
          </mxGeometry>
        </mxCell>
        <mxCell id="9OeMlv5DkkwpeZTBS1o4-8" value="Sistema pede o nome do medicamento" style="text;html=1;align=center;verticalAlign=middle;resizable=0;points=[];autosize=1;strokeColor=none;fillColor=none;" parent="1" vertex="1">
          <mxGeometry x="5245" y="269.40999999999997" width="230" height="30" as="geometry" />
        </mxCell>
        <mxCell id="9OeMlv5DkkwpeZTBS1o4-9" value="" style="endArrow=classic;dashed=1;html=1;dashPattern=1 3;strokeWidth=2;rounded=0;endFill=1;" parent="1" edge="1">
          <mxGeometry width="50" height="50" relative="1" as="geometry">
            <mxPoint x="5630" y="299.40999999999997" as="sourcePoint" />
            <mxPoint x="5100" y="299.40999999999997" as="targetPoint" />
          </mxGeometry>
        </mxCell>
        <mxCell id="9OeMlv5DkkwpeZTBS1o4-10" value="IniciarPesquisaContatoFarmaCovigilancia()" style="text;html=1;align=center;verticalAlign=middle;resizable=0;points=[];autosize=1;strokeColor=none;fillColor=none;" parent="1" vertex="1">
          <mxGeometry x="5240" y="219.41" width="250" height="30" as="geometry" />
        </mxCell>
        <mxCell id="9OeMlv5DkkwpeZTBS1o4-11" value="IndicarTermoPesquisa()" style="text;html=1;align=center;verticalAlign=middle;resizable=0;points=[];autosize=1;strokeColor=none;fillColor=none;" parent="1" vertex="1">
          <mxGeometry x="5290" y="319.40999999999997" width="150" height="30" as="geometry" />
        </mxCell>
        <mxCell id="9OeMlv5DkkwpeZTBS1o4-12" value="" style="endArrow=classic;html=1;rounded=0;strokeWidth=2;" parent="1" edge="1">
          <mxGeometry width="50" height="50" relative="1" as="geometry">
            <mxPoint x="5100" y="349.40999999999997" as="sourcePoint" />
            <mxPoint x="5630" y="349.40999999999997" as="targetPoint" />
          </mxGeometry>
        </mxCell>
        <mxCell id="9OeMlv5DkkwpeZTBS1o4-13" value="Sistema mostra o nome, email e telefone da farmacoviligancia" style="text;html=1;align=center;verticalAlign=middle;resizable=0;points=[];autosize=1;strokeColor=none;fillColor=none;" parent="1" vertex="1">
          <mxGeometry x="5185" y="369.40999999999997" width="350" height="30" as="geometry" />
        </mxCell>
        <mxCell id="9OeMlv5DkkwpeZTBS1o4-14" value="" style="endArrow=classic;dashed=1;html=1;dashPattern=1 3;strokeWidth=2;rounded=0;endFill=1;" parent="1" edge="1">
          <mxGeometry width="50" height="50" relative="1" as="geometry">
            <mxPoint x="5630" y="399.40999999999997" as="sourcePoint" />
            <mxPoint x="5100" y="399.40999999999997" as="targetPoint" />
          </mxGeometry>
        </mxCell>
        <mxCell id="rduZXuOO15uLA9PohZZ0-1" value="2d: O utilizador cancela a pesquisa" style="text;html=1;strokeColor=none;fillColor=none;align=center;verticalAlign=middle;whiteSpace=wrap;rounded=0;fontStyle=1;fontSize=14;" parent="1" vertex="1">
          <mxGeometry x="6110" y="40" width="190" height="30" as="geometry" />
        </mxCell>
        <mxCell id="rduZXuOO15uLA9PohZZ0-3" value=":Utilizador" style="shape=umlActor;verticalLabelPosition=bottom;verticalAlign=top;html=1;outlineConnect=0;fontStyle=1;fontSize=17;" parent="1" vertex="1">
          <mxGeometry x="5880" y="70" width="60" height="120" as="geometry" />
        </mxCell>
        <mxCell id="rduZXuOO15uLA9PohZZ0-4" value=":Sistema" style="rounded=0;whiteSpace=wrap;html=1;fontStyle=1;fontSize=17;" parent="1" vertex="1">
          <mxGeometry x="6380" y="160" width="120" height="60" as="geometry" />
        </mxCell>
        <mxCell id="rduZXuOO15uLA9PohZZ0-5" value="" style="endArrow=none;dashed=1;html=1;rounded=0;fontStyle=1;fontSize=16;strokeWidth=1;" parent="1" edge="1">
          <mxGeometry width="50" height="50" relative="1" as="geometry">
            <mxPoint x="5910" y="231" as="sourcePoint" />
            <mxPoint x="5910" y="370" as="targetPoint" />
          </mxGeometry>
        </mxCell>
        <mxCell id="rduZXuOO15uLA9PohZZ0-6" value="" style="endArrow=none;dashed=1;html=1;rounded=0;fontStyle=1;fontSize=16;strokeWidth=1;" parent="1" edge="1">
          <mxGeometry width="50" height="50" relative="1" as="geometry">
            <mxPoint x="6439.5" y="231" as="sourcePoint" />
            <mxPoint x="6440" y="380" as="targetPoint" />
          </mxGeometry>
        </mxCell>
        <mxCell id="rduZXuOO15uLA9PohZZ0-7" value="" style="endArrow=classic;html=1;rounded=0;strokeWidth=2;" parent="1" edge="1">
          <mxGeometry width="50" height="50" relative="1" as="geometry">
            <mxPoint x="5910" y="270" as="sourcePoint" />
            <mxPoint x="6440" y="270" as="targetPoint" />
          </mxGeometry>
        </mxCell>
        <mxCell id="rduZXuOO15uLA9PohZZ0-10" value="CancelarPesquisa()" style="text;html=1;align=center;verticalAlign=middle;resizable=0;points=[];autosize=1;strokeColor=none;fillColor=none;" parent="1" vertex="1">
          <mxGeometry x="6110" y="240" width="130" height="30" as="geometry" />
        </mxCell>
        <mxCell id="rduZXuOO15uLA9PohZZ0-23" value="4a: Se não indicou a informção" style="text;html=1;strokeColor=none;fillColor=none;align=center;verticalAlign=middle;whiteSpace=wrap;rounded=0;fontStyle=1;fontSize=14;" parent="1" vertex="1">
          <mxGeometry x="6900" y="19.409999999999997" width="190" height="30" as="geometry" />
        </mxCell>
        <mxCell id="rduZXuOO15uLA9PohZZ0-25" value=":Utilizador" style="shape=umlActor;verticalLabelPosition=bottom;verticalAlign=top;html=1;outlineConnect=0;fontStyle=1;fontSize=17;" parent="1" vertex="1">
          <mxGeometry x="6670" y="49.41" width="60" height="120" as="geometry" />
        </mxCell>
        <mxCell id="rduZXuOO15uLA9PohZZ0-26" value=":Sistema" style="rounded=0;whiteSpace=wrap;html=1;fontStyle=1;fontSize=17;" parent="1" vertex="1">
          <mxGeometry x="7170" y="139.41" width="120" height="60" as="geometry" />
        </mxCell>
        <mxCell id="rduZXuOO15uLA9PohZZ0-27" value="" style="endArrow=none;dashed=1;html=1;rounded=0;fontStyle=1;fontSize=16;strokeWidth=1;" parent="1" edge="1">
          <mxGeometry width="50" height="50" relative="1" as="geometry">
            <mxPoint x="6700" y="210.41" as="sourcePoint" />
            <mxPoint x="6700" y="479.40999999999997" as="targetPoint" />
          </mxGeometry>
        </mxCell>
        <mxCell id="rduZXuOO15uLA9PohZZ0-28" value="" style="endArrow=none;dashed=1;html=1;rounded=0;fontStyle=1;fontSize=16;strokeWidth=1;" parent="1" edge="1">
          <mxGeometry width="50" height="50" relative="1" as="geometry">
            <mxPoint x="7229.5" y="210.41" as="sourcePoint" />
            <mxPoint x="7230" y="499.40999999999997" as="targetPoint" />
          </mxGeometry>
        </mxCell>
        <mxCell id="rduZXuOO15uLA9PohZZ0-38" value="" style="endArrow=classic;dashed=1;html=1;dashPattern=1 3;strokeWidth=2;rounded=0;endFill=1;" parent="1" edge="1">
          <mxGeometry width="50" height="50" relative="1" as="geometry">
            <mxPoint x="7230" y="299.40999999999997" as="sourcePoint" />
            <mxPoint x="6700" y="299.40999999999997" as="targetPoint" />
          </mxGeometry>
        </mxCell>
        <mxCell id="rduZXuOO15uLA9PohZZ0-39" value="IndicarTermoPesquisa()" style="text;html=1;align=center;verticalAlign=middle;resizable=0;points=[];autosize=1;strokeColor=none;fillColor=none;" parent="1" vertex="1">
          <mxGeometry x="6890" y="319.40999999999997" width="150" height="30" as="geometry" />
        </mxCell>
        <mxCell id="rduZXuOO15uLA9PohZZ0-40" value="" style="endArrow=classic;html=1;rounded=0;strokeWidth=2;" parent="1" edge="1">
          <mxGeometry width="50" height="50" relative="1" as="geometry">
            <mxPoint x="6700" y="349.40999999999997" as="sourcePoint" />
            <mxPoint x="7230" y="349.40999999999997" as="targetPoint" />
          </mxGeometry>
        </mxCell>
        <mxCell id="rduZXuOO15uLA9PohZZ0-42" value="" style="endArrow=classic;dashed=1;html=1;dashPattern=1 3;strokeWidth=2;rounded=0;endFill=1;" parent="1" edge="1">
          <mxGeometry width="50" height="50" relative="1" as="geometry">
            <mxPoint x="7230" y="399.40999999999997" as="sourcePoint" />
            <mxPoint x="6700" y="399.40999999999997" as="targetPoint" />
          </mxGeometry>
        </mxCell>
        <mxCell id="rduZXuOO15uLA9PohZZ0-43" value="Indica que há dados em falta" style="text;html=1;align=center;verticalAlign=middle;resizable=0;points=[];autosize=1;strokeColor=none;fillColor=none;" parent="1" vertex="1">
          <mxGeometry x="6870" y="218.82" width="180" height="30" as="geometry" />
        </mxCell>
        <mxCell id="rduZXuOO15uLA9PohZZ0-44" value="" style="endArrow=classic;dashed=1;html=1;dashPattern=1 3;strokeWidth=2;rounded=0;endFill=1;" parent="1" edge="1">
          <mxGeometry width="50" height="50" relative="1" as="geometry">
            <mxPoint x="7230" y="248.82" as="sourcePoint" />
            <mxPoint x="6700" y="248.82" as="targetPoint" />
          </mxGeometry>
        </mxCell>
        <mxCell id="rduZXuOO15uLA9PohZZ0-45" value="4b: Se o medicamento não existir" style="text;html=1;strokeColor=none;fillColor=none;align=center;verticalAlign=middle;whiteSpace=wrap;rounded=0;fontStyle=1;fontSize=14;" parent="1" vertex="1">
          <mxGeometry x="7730" y="30" width="190" height="30" as="geometry" />
        </mxCell>
        <mxCell id="rduZXuOO15uLA9PohZZ0-46" value="" style="edgeStyle=orthogonalEdgeStyle;rounded=0;orthogonalLoop=1;jettySize=auto;html=1;" parent="1" source="rduZXuOO15uLA9PohZZ0-47" edge="1">
          <mxGeometry relative="1" as="geometry">
            <mxPoint x="7530" y="260" as="targetPoint" />
          </mxGeometry>
        </mxCell>
        <mxCell id="rduZXuOO15uLA9PohZZ0-47" value=":Utilizador" style="shape=umlActor;verticalLabelPosition=bottom;verticalAlign=top;html=1;outlineConnect=0;fontStyle=1;fontSize=17;" parent="1" vertex="1">
          <mxGeometry x="7500" y="60" width="60" height="120" as="geometry" />
        </mxCell>
        <mxCell id="rduZXuOO15uLA9PohZZ0-48" value=":Sistema" style="rounded=0;whiteSpace=wrap;html=1;fontStyle=1;fontSize=17;" parent="1" vertex="1">
          <mxGeometry x="8000" y="150" width="120" height="60" as="geometry" />
        </mxCell>
        <mxCell id="rduZXuOO15uLA9PohZZ0-49" value="" style="endArrow=none;dashed=1;html=1;rounded=0;fontStyle=1;fontSize=16;strokeWidth=1;" parent="1" edge="1">
          <mxGeometry width="50" height="50" relative="1" as="geometry">
            <mxPoint x="7530" y="221" as="sourcePoint" />
            <mxPoint x="7530" y="490" as="targetPoint" />
          </mxGeometry>
        </mxCell>
        <mxCell id="rduZXuOO15uLA9PohZZ0-50" value="" style="endArrow=none;dashed=1;html=1;rounded=0;fontStyle=1;fontSize=16;strokeWidth=1;" parent="1" edge="1">
          <mxGeometry width="50" height="50" relative="1" as="geometry">
            <mxPoint x="8059.5" y="221" as="sourcePoint" />
            <mxPoint x="8060" y="510" as="targetPoint" />
          </mxGeometry>
        </mxCell>
        <mxCell id="rduZXuOO15uLA9PohZZ0-52" value="" style="endArrow=classic;dashed=1;html=1;dashPattern=1 3;strokeWidth=2;rounded=0;endFill=1;" parent="1" edge="1">
          <mxGeometry width="50" height="50" relative="1" as="geometry">
            <mxPoint x="8060" y="310" as="sourcePoint" />
            <mxPoint x="7530" y="310" as="targetPoint" />
          </mxGeometry>
        </mxCell>
        <mxCell id="rduZXuOO15uLA9PohZZ0-53" value="IndicarTermoPesquisa()" style="text;html=1;align=center;verticalAlign=middle;resizable=0;points=[];autosize=1;strokeColor=none;fillColor=none;" parent="1" vertex="1">
          <mxGeometry x="7720" y="330" width="150" height="30" as="geometry" />
        </mxCell>
        <mxCell id="rduZXuOO15uLA9PohZZ0-54" value="" style="endArrow=classic;html=1;rounded=0;strokeWidth=2;" parent="1" edge="1">
          <mxGeometry width="50" height="50" relative="1" as="geometry">
            <mxPoint x="7530" y="360" as="sourcePoint" />
            <mxPoint x="8060" y="360" as="targetPoint" />
          </mxGeometry>
        </mxCell>
        <mxCell id="rduZXuOO15uLA9PohZZ0-56" value="" style="endArrow=classic;dashed=1;html=1;dashPattern=1 3;strokeWidth=2;rounded=0;endFill=1;" parent="1" edge="1">
          <mxGeometry width="50" height="50" relative="1" as="geometry">
            <mxPoint x="8060" y="410" as="sourcePoint" />
            <mxPoint x="7530" y="410" as="targetPoint" />
          </mxGeometry>
        </mxCell>
        <mxCell id="rduZXuOO15uLA9PohZZ0-57" value="Medicamento não existe" style="text;html=1;align=center;verticalAlign=middle;resizable=0;points=[];autosize=1;strokeColor=none;fillColor=none;" parent="1" vertex="1">
          <mxGeometry x="7715" y="229.41" width="150" height="30" as="geometry" />
        </mxCell>
        <mxCell id="rduZXuOO15uLA9PohZZ0-58" value="" style="endArrow=classic;dashed=1;html=1;dashPattern=1 3;strokeWidth=2;rounded=0;endFill=1;" parent="1" edge="1">
          <mxGeometry width="50" height="50" relative="1" as="geometry">
            <mxPoint x="8060" y="259.40999999999997" as="sourcePoint" />
            <mxPoint x="7530" y="259.40999999999997" as="targetPoint" />
          </mxGeometry>
        </mxCell>
        <mxCell id="rduZXuOO15uLA9PohZZ0-59" value="4c:Se não houver interações alimentares" style="text;html=1;strokeColor=none;fillColor=none;align=center;verticalAlign=middle;whiteSpace=wrap;rounded=0;fontStyle=1;fontSize=14;" parent="1" vertex="1">
          <mxGeometry x="8610" y="24.409999999999997" width="190" height="30" as="geometry" />
        </mxCell>
        <mxCell id="rduZXuOO15uLA9PohZZ0-61" value=":Utilizador" style="shape=umlActor;verticalLabelPosition=bottom;verticalAlign=top;html=1;outlineConnect=0;fontStyle=1;fontSize=17;" parent="1" vertex="1">
          <mxGeometry x="8380" y="54.41" width="60" height="120" as="geometry" />
        </mxCell>
        <mxCell id="rduZXuOO15uLA9PohZZ0-62" value=":Sistema" style="rounded=0;whiteSpace=wrap;html=1;fontStyle=1;fontSize=17;" parent="1" vertex="1">
          <mxGeometry x="8880" y="144.41" width="120" height="60" as="geometry" />
        </mxCell>
        <mxCell id="rduZXuOO15uLA9PohZZ0-63" value="" style="endArrow=none;dashed=1;html=1;rounded=0;fontStyle=1;fontSize=16;strokeWidth=1;" parent="1" edge="1">
          <mxGeometry width="50" height="50" relative="1" as="geometry">
            <mxPoint x="8410" y="215.41" as="sourcePoint" />
            <mxPoint x="8410" y="314.40999999999997" as="targetPoint" />
          </mxGeometry>
        </mxCell>
        <mxCell id="rduZXuOO15uLA9PohZZ0-64" value="" style="endArrow=none;dashed=1;html=1;rounded=0;fontStyle=1;fontSize=16;strokeWidth=1;" parent="1" edge="1">
          <mxGeometry width="50" height="50" relative="1" as="geometry">
            <mxPoint x="8939.5" y="215.41" as="sourcePoint" />
            <mxPoint x="8940" y="314.40999999999997" as="targetPoint" />
          </mxGeometry>
        </mxCell>
        <mxCell id="rduZXuOO15uLA9PohZZ0-71" value="Indica que não existe interações para o medicamento" style="text;html=1;align=center;verticalAlign=middle;resizable=0;points=[];autosize=1;strokeColor=none;fillColor=none;" parent="1" vertex="1">
          <mxGeometry x="8515" y="223.82" width="310" height="30" as="geometry" />
        </mxCell>
        <mxCell id="rduZXuOO15uLA9PohZZ0-72" value="" style="endArrow=classic;dashed=1;html=1;dashPattern=1 3;strokeWidth=2;rounded=0;endFill=1;" parent="1" edge="1">
          <mxGeometry width="50" height="50" relative="1" as="geometry">
            <mxPoint x="8940" y="253.82" as="sourcePoint" />
            <mxPoint x="8410" y="253.82" as="targetPoint" />
          </mxGeometry>
        </mxCell>
        <mxCell id="sN27pxf_Pg4I63KWMfcS-1" value="Sistema pede o nome do medicamento" style="text;html=1;align=center;verticalAlign=middle;resizable=0;points=[];autosize=1;strokeColor=none;fillColor=none;" vertex="1" parent="1">
          <mxGeometry x="6845" y="269.40999999999997" width="230" height="30" as="geometry" />
        </mxCell>
        <mxCell id="sN27pxf_Pg4I63KWMfcS-2" value="Sistema mostra o nome, email e telefone da farmacoviligancia" style="text;html=1;align=center;verticalAlign=middle;resizable=0;points=[];autosize=1;strokeColor=none;fillColor=none;" vertex="1" parent="1">
          <mxGeometry x="6780" y="369.40999999999997" width="350" height="30" as="geometry" />
        </mxCell>
        <mxCell id="sN27pxf_Pg4I63KWMfcS-3" value="Sistema pede o nome do medicamento" style="text;html=1;align=center;verticalAlign=middle;resizable=0;points=[];autosize=1;strokeColor=none;fillColor=none;" vertex="1" parent="1">
          <mxGeometry x="7670" y="279.40999999999997" width="230" height="30" as="geometry" />
        </mxCell>
        <mxCell id="sN27pxf_Pg4I63KWMfcS-4" value="Sistema mostra o nome, email e telefone da farmacoviligancia" style="text;html=1;align=center;verticalAlign=middle;resizable=0;points=[];autosize=1;strokeColor=none;fillColor=none;" vertex="1" parent="1">
          <mxGeometry x="7615" y="379.40999999999997" width="350" height="30" as="geometry" />
        </mxCell>
      </root>
    </mxGraphModel>
  </diagram>
  <diagram id="G_V1fMW-LpbxfZm_5tgC" name="Página-16">
    <mxGraphModel dx="758" dy="442" grid="1" gridSize="10" guides="1" tooltips="1" connect="1" arrows="1" fold="1" page="1" pageScale="1" pageWidth="827" pageHeight="1169" math="0" shadow="0">
      <root>
        <mxCell id="0" />
        <mxCell id="1" parent="0" />
      </root>
    </mxGraphModel>
  </diagram>
  <diagram id="eF589mXjGoLL9e2xIJth" name="Página-4">
    <mxGraphModel dx="758" dy="442" grid="1" gridSize="10" guides="1" tooltips="1" connect="1" arrows="1" fold="1" page="1" pageScale="1" pageWidth="827" pageHeight="1169" math="0" shadow="0">
      <root>
        <mxCell id="0" />
        <mxCell id="1" parent="0" />
      </root>
    </mxGraphModel>
  </diagram>
</mxfile>
